<?xml version="1.0" standalone="no"?>
<svg xmlns="http://www.w3.org/2000/svg" version="1.1" width="1023" height="1023">
	<!-- Created with https://api.qrserver.com (QR Code API, see goQR.me/api for information) -->
	<title>QR Code</title>
	<desc>https://sarascan.zeabur.app/</desc>
	<rect style="fill:rgb(255, 255, 255);fill-opacity:1" x="0" y="0" width="1023" height="1023" />
	<g id="elements">
		<path style="fill:rgb(0, 0, 0)" d="M 0,0 l 31,0 0,31 -31,0 z M 31,0 l 31,0 0,31 -31,0 z M 62,0 l 31,0 0,31 -31,0 z M 93,0 l 31,0 0,31 -31,0 z M 124,0 l 31,0 0,31 -31,0 z M 155,0 l 31,0 0,31 -31,0 z M 186,0 l 31,0 0,31 -31,0 z M 248,0 l 31,0 0,31 -31,0 z M 310,0 l 31,0 0,31 -31,0 z M 372,0 l 31,0 0,31 -31,0 z M 403,0 l 31,0 0,31 -31,0 z M 558,0 l 31,0 0,31 -31,0 z M 651,0 l 31,0 0,31 -31,0 z M 713,0 l 31,0 0,31 -31,0 z M 744,0 l 31,0 0,31 -31,0 z M 806,0 l 31,0 0,31 -31,0 z M 837,0 l 31,0 0,31 -31,0 z M 868,0 l 31,0 0,31 -31,0 z M 899,0 l 31,0 0,31 -31,0 z M 930,0 l 31,0 0,31 -31,0 z M 961,0 l 31,0 0,31 -31,0 z M 992,0 l 31,0 0,31 -31,0 z M 0,31 l 31,0 0,31 -31,0 z M 186,31 l 31,0 0,31 -31,0 z M 248,31 l 31,0 0,31 -31,0 z M 279,31 l 31,0 0,31 -31,0 z M 310,31 l 31,0 0,31 -31,0 z M 341,31 l 31,0 0,31 -31,0 z M 372,31 l 31,0 0,31 -31,0 z M 434,31 l 31,0 0,31 -31,0 z M 465,31 l 31,0 0,31 -31,0 z M 527,31 l 31,0 0,31 -31,0 z M 558,31 l 31,0 0,31 -31,0 z M 589,31 l 31,0 0,31 -31,0 z M 651,31 l 31,0 0,31 -31,0 z M 744,31 l 31,0 0,31 -31,0 z M 806,31 l 31,0 0,31 -31,0 z M 992,31 l 31,0 0,31 -31,0 z M 0,62 l 31,0 0,31 -31,0 z M 62,62 l 31,0 0,31 -31,0 z M 93,62 l 31,0 0,31 -31,0 z M 124,62 l 31,0 0,31 -31,0 z M 186,62 l 31,0 0,31 -31,0 z M 248,62 l 31,0 0,31 -31,0 z M 279,62 l 31,0 0,31 -31,0 z M 310,62 l 31,0 0,31 -31,0 z M 341,62 l 31,0 0,31 -31,0 z M 465,62 l 31,0 0,31 -31,0 z M 527,62 l 31,0 0,31 -31,0 z M 558,62 l 31,0 0,31 -31,0 z M 620,62 l 31,0 0,31 -31,0 z M 651,62 l 31,0 0,31 -31,0 z M 682,62 l 31,0 0,31 -31,0 z M 713,62 l 31,0 0,31 -31,0 z M 744,62 l 31,0 0,31 -31,0 z M 806,62 l 31,0 0,31 -31,0 z M 868,62 l 31,0 0,31 -31,0 z M 899,62 l 31,0 0,31 -31,0 z M 930,62 l 31,0 0,31 -31,0 z M 992,62 l 31,0 0,31 -31,0 z M 0,93 l 31,0 0,31 -31,0 z M 62,93 l 31,0 0,31 -31,0 z M 93,93 l 31,0 0,31 -31,0 z M 124,93 l 31,0 0,31 -31,0 z M 186,93 l 31,0 0,31 -31,0 z M 310,93 l 31,0 0,31 -31,0 z M 372,93 l 31,0 0,31 -31,0 z M 403,93 l 31,0 0,31 -31,0 z M 527,93 l 31,0 0,31 -31,0 z M 558,93 l 31,0 0,31 -31,0 z M 589,93 l 31,0 0,31 -31,0 z M 620,93 l 31,0 0,31 -31,0 z M 682,93 l 31,0 0,31 -31,0 z M 713,93 l 31,0 0,31 -31,0 z M 806,93 l 31,0 0,31 -31,0 z M 868,93 l 31,0 0,31 -31,0 z M 899,93 l 31,0 0,31 -31,0 z M 930,93 l 31,0 0,31 -31,0 z M 992,93 l 31,0 0,31 -31,0 z M 0,124 l 31,0 0,31 -31,0 z M 62,124 l 31,0 0,31 -31,0 z M 93,124 l 31,0 0,31 -31,0 z M 124,124 l 31,0 0,31 -31,0 z M 186,124 l 31,0 0,31 -31,0 z M 310,124 l 31,0 0,31 -31,0 z M 341,124 l 31,0 0,31 -31,0 z M 372,124 l 31,0 0,31 -31,0 z M 403,124 l 31,0 0,31 -31,0 z M 465,124 l 31,0 0,31 -31,0 z M 558,124 l 31,0 0,31 -31,0 z M 589,124 l 31,0 0,31 -31,0 z M 620,124 l 31,0 0,31 -31,0 z M 744,124 l 31,0 0,31 -31,0 z M 806,124 l 31,0 0,31 -31,0 z M 868,124 l 31,0 0,31 -31,0 z M 899,124 l 31,0 0,31 -31,0 z M 930,124 l 31,0 0,31 -31,0 z M 992,124 l 31,0 0,31 -31,0 z M 0,155 l 31,0 0,31 -31,0 z M 186,155 l 31,0 0,31 -31,0 z M 248,155 l 31,0 0,31 -31,0 z M 310,155 l 31,0 0,31 -31,0 z M 341,155 l 31,0 0,31 -31,0 z M 372,155 l 31,0 0,31 -31,0 z M 434,155 l 31,0 0,31 -31,0 z M 465,155 l 31,0 0,31 -31,0 z M 496,155 l 31,0 0,31 -31,0 z M 527,155 l 31,0 0,31 -31,0 z M 558,155 l 31,0 0,31 -31,0 z M 589,155 l 31,0 0,31 -31,0 z M 620,155 l 31,0 0,31 -31,0 z M 682,155 l 31,0 0,31 -31,0 z M 806,155 l 31,0 0,31 -31,0 z M 992,155 l 31,0 0,31 -31,0 z M 0,186 l 31,0 0,31 -31,0 z M 31,186 l 31,0 0,31 -31,0 z M 62,186 l 31,0 0,31 -31,0 z M 93,186 l 31,0 0,31 -31,0 z M 124,186 l 31,0 0,31 -31,0 z M 155,186 l 31,0 0,31 -31,0 z M 186,186 l 31,0 0,31 -31,0 z M 248,186 l 31,0 0,31 -31,0 z M 310,186 l 31,0 0,31 -31,0 z M 372,186 l 31,0 0,31 -31,0 z M 434,186 l 31,0 0,31 -31,0 z M 496,186 l 31,0 0,31 -31,0 z M 558,186 l 31,0 0,31 -31,0 z M 620,186 l 31,0 0,31 -31,0 z M 682,186 l 31,0 0,31 -31,0 z M 744,186 l 31,0 0,31 -31,0 z M 806,186 l 31,0 0,31 -31,0 z M 837,186 l 31,0 0,31 -31,0 z M 868,186 l 31,0 0,31 -31,0 z M 899,186 l 31,0 0,31 -31,0 z M 930,186 l 31,0 0,31 -31,0 z M 961,186 l 31,0 0,31 -31,0 z M 992,186 l 31,0 0,31 -31,0 z M 248,217 l 31,0 0,31 -31,0 z M 279,217 l 31,0 0,31 -31,0 z M 310,217 l 31,0 0,31 -31,0 z M 341,217 l 31,0 0,31 -31,0 z M 465,217 l 31,0 0,31 -31,0 z M 527,217 l 31,0 0,31 -31,0 z M 651,217 l 31,0 0,31 -31,0 z M 744,217 l 31,0 0,31 -31,0 z M 62,248 l 31,0 0,31 -31,0 z M 93,248 l 31,0 0,31 -31,0 z M 124,248 l 31,0 0,31 -31,0 z M 186,248 l 31,0 0,31 -31,0 z M 248,248 l 31,0 0,31 -31,0 z M 279,248 l 31,0 0,31 -31,0 z M 310,248 l 31,0 0,31 -31,0 z M 341,248 l 31,0 0,31 -31,0 z M 372,248 l 31,0 0,31 -31,0 z M 496,248 l 31,0 0,31 -31,0 z M 682,248 l 31,0 0,31 -31,0 z M 744,248 l 31,0 0,31 -31,0 z M 775,248 l 31,0 0,31 -31,0 z M 806,248 l 31,0 0,31 -31,0 z M 837,248 l 31,0 0,31 -31,0 z M 930,248 l 31,0 0,31 -31,0 z M 961,248 l 31,0 0,31 -31,0 z M 992,248 l 31,0 0,31 -31,0 z M 0,279 l 31,0 0,31 -31,0 z M 62,279 l 31,0 0,31 -31,0 z M 124,279 l 31,0 0,31 -31,0 z M 155,279 l 31,0 0,31 -31,0 z M 496,279 l 31,0 0,31 -31,0 z M 527,279 l 31,0 0,31 -31,0 z M 558,279 l 31,0 0,31 -31,0 z M 713,279 l 31,0 0,31 -31,0 z M 744,279 l 31,0 0,31 -31,0 z M 775,279 l 31,0 0,31 -31,0 z M 806,279 l 31,0 0,31 -31,0 z M 992,279 l 31,0 0,31 -31,0 z M 31,310 l 31,0 0,31 -31,0 z M 124,310 l 31,0 0,31 -31,0 z M 155,310 l 31,0 0,31 -31,0 z M 186,310 l 31,0 0,31 -31,0 z M 217,310 l 31,0 0,31 -31,0 z M 279,310 l 31,0 0,31 -31,0 z M 372,310 l 31,0 0,31 -31,0 z M 403,310 l 31,0 0,31 -31,0 z M 496,310 l 31,0 0,31 -31,0 z M 558,310 l 31,0 0,31 -31,0 z M 682,310 l 31,0 0,31 -31,0 z M 744,310 l 31,0 0,31 -31,0 z M 837,310 l 31,0 0,31 -31,0 z M 961,310 l 31,0 0,31 -31,0 z M 0,341 l 31,0 0,31 -31,0 z M 31,341 l 31,0 0,31 -31,0 z M 124,341 l 31,0 0,31 -31,0 z M 155,341 l 31,0 0,31 -31,0 z M 217,341 l 31,0 0,31 -31,0 z M 341,341 l 31,0 0,31 -31,0 z M 372,341 l 31,0 0,31 -31,0 z M 403,341 l 31,0 0,31 -31,0 z M 465,341 l 31,0 0,31 -31,0 z M 496,341 l 31,0 0,31 -31,0 z M 713,341 l 31,0 0,31 -31,0 z M 744,341 l 31,0 0,31 -31,0 z M 775,341 l 31,0 0,31 -31,0 z M 899,341 l 31,0 0,31 -31,0 z M 930,341 l 31,0 0,31 -31,0 z M 961,341 l 31,0 0,31 -31,0 z M 992,341 l 31,0 0,31 -31,0 z M 93,372 l 31,0 0,31 -31,0 z M 124,372 l 31,0 0,31 -31,0 z M 155,372 l 31,0 0,31 -31,0 z M 186,372 l 31,0 0,31 -31,0 z M 248,372 l 31,0 0,31 -31,0 z M 279,372 l 31,0 0,31 -31,0 z M 310,372 l 31,0 0,31 -31,0 z M 341,372 l 31,0 0,31 -31,0 z M 403,372 l 31,0 0,31 -31,0 z M 496,372 l 31,0 0,31 -31,0 z M 527,372 l 31,0 0,31 -31,0 z M 651,372 l 31,0 0,31 -31,0 z M 682,372 l 31,0 0,31 -31,0 z M 744,372 l 31,0 0,31 -31,0 z M 775,372 l 31,0 0,31 -31,0 z M 837,372 l 31,0 0,31 -31,0 z M 62,403 l 31,0 0,31 -31,0 z M 93,403 l 31,0 0,31 -31,0 z M 217,403 l 31,0 0,31 -31,0 z M 310,403 l 31,0 0,31 -31,0 z M 403,403 l 31,0 0,31 -31,0 z M 496,403 l 31,0 0,31 -31,0 z M 558,403 l 31,0 0,31 -31,0 z M 589,403 l 31,0 0,31 -31,0 z M 713,403 l 31,0 0,31 -31,0 z M 775,403 l 31,0 0,31 -31,0 z M 806,403 l 31,0 0,31 -31,0 z M 868,403 l 31,0 0,31 -31,0 z M 930,403 l 31,0 0,31 -31,0 z M 992,403 l 31,0 0,31 -31,0 z M 0,434 l 31,0 0,31 -31,0 z M 31,434 l 31,0 0,31 -31,0 z M 93,434 l 31,0 0,31 -31,0 z M 155,434 l 31,0 0,31 -31,0 z M 186,434 l 31,0 0,31 -31,0 z M 279,434 l 31,0 0,31 -31,0 z M 310,434 l 31,0 0,31 -31,0 z M 341,434 l 31,0 0,31 -31,0 z M 465,434 l 31,0 0,31 -31,0 z M 589,434 l 31,0 0,31 -31,0 z M 682,434 l 31,0 0,31 -31,0 z M 837,434 l 31,0 0,31 -31,0 z M 868,434 l 31,0 0,31 -31,0 z M 930,434 l 31,0 0,31 -31,0 z M 961,434 l 31,0 0,31 -31,0 z M 0,465 l 31,0 0,31 -31,0 z M 31,465 l 31,0 0,31 -31,0 z M 93,465 l 31,0 0,31 -31,0 z M 155,465 l 31,0 0,31 -31,0 z M 217,465 l 31,0 0,31 -31,0 z M 310,465 l 31,0 0,31 -31,0 z M 341,465 l 31,0 0,31 -31,0 z M 620,465 l 31,0 0,31 -31,0 z M 651,465 l 31,0 0,31 -31,0 z M 682,465 l 31,0 0,31 -31,0 z M 713,465 l 31,0 0,31 -31,0 z M 744,465 l 31,0 0,31 -31,0 z M 806,465 l 31,0 0,31 -31,0 z M 868,465 l 31,0 0,31 -31,0 z M 930,465 l 31,0 0,31 -31,0 z M 0,496 l 31,0 0,31 -31,0 z M 31,496 l 31,0 0,31 -31,0 z M 93,496 l 31,0 0,31 -31,0 z M 124,496 l 31,0 0,31 -31,0 z M 155,496 l 31,0 0,31 -31,0 z M 186,496 l 31,0 0,31 -31,0 z M 248,496 l 31,0 0,31 -31,0 z M 279,496 l 31,0 0,31 -31,0 z M 341,496 l 31,0 0,31 -31,0 z M 434,496 l 31,0 0,31 -31,0 z M 465,496 l 31,0 0,31 -31,0 z M 527,496 l 31,0 0,31 -31,0 z M 775,496 l 31,0 0,31 -31,0 z M 837,496 l 31,0 0,31 -31,0 z M 868,496 l 31,0 0,31 -31,0 z M 961,496 l 31,0 0,31 -31,0 z M 992,496 l 31,0 0,31 -31,0 z M 0,527 l 31,0 0,31 -31,0 z M 31,527 l 31,0 0,31 -31,0 z M 62,527 l 31,0 0,31 -31,0 z M 217,527 l 31,0 0,31 -31,0 z M 248,527 l 31,0 0,31 -31,0 z M 341,527 l 31,0 0,31 -31,0 z M 372,527 l 31,0 0,31 -31,0 z M 527,527 l 31,0 0,31 -31,0 z M 589,527 l 31,0 0,31 -31,0 z M 620,527 l 31,0 0,31 -31,0 z M 713,527 l 31,0 0,31 -31,0 z M 744,527 l 31,0 0,31 -31,0 z M 775,527 l 31,0 0,31 -31,0 z M 806,527 l 31,0 0,31 -31,0 z M 961,527 l 31,0 0,31 -31,0 z M 992,527 l 31,0 0,31 -31,0 z M 31,558 l 31,0 0,31 -31,0 z M 155,558 l 31,0 0,31 -31,0 z M 186,558 l 31,0 0,31 -31,0 z M 310,558 l 31,0 0,31 -31,0 z M 434,558 l 31,0 0,31 -31,0 z M 558,558 l 31,0 0,31 -31,0 z M 589,558 l 31,0 0,31 -31,0 z M 620,558 l 31,0 0,31 -31,0 z M 682,558 l 31,0 0,31 -31,0 z M 930,558 l 31,0 0,31 -31,0 z M 961,558 l 31,0 0,31 -31,0 z M 0,589 l 31,0 0,31 -31,0 z M 31,589 l 31,0 0,31 -31,0 z M 155,589 l 31,0 0,31 -31,0 z M 217,589 l 31,0 0,31 -31,0 z M 279,589 l 31,0 0,31 -31,0 z M 341,589 l 31,0 0,31 -31,0 z M 372,589 l 31,0 0,31 -31,0 z M 558,589 l 31,0 0,31 -31,0 z M 651,589 l 31,0 0,31 -31,0 z M 713,589 l 31,0 0,31 -31,0 z M 744,589 l 31,0 0,31 -31,0 z M 775,589 l 31,0 0,31 -31,0 z M 837,589 l 31,0 0,31 -31,0 z M 899,589 l 31,0 0,31 -31,0 z M 930,589 l 31,0 0,31 -31,0 z M 31,620 l 31,0 0,31 -31,0 z M 155,620 l 31,0 0,31 -31,0 z M 186,620 l 31,0 0,31 -31,0 z M 217,620 l 31,0 0,31 -31,0 z M 341,620 l 31,0 0,31 -31,0 z M 403,620 l 31,0 0,31 -31,0 z M 496,620 l 31,0 0,31 -31,0 z M 527,620 l 31,0 0,31 -31,0 z M 558,620 l 31,0 0,31 -31,0 z M 589,620 l 31,0 0,31 -31,0 z M 744,620 l 31,0 0,31 -31,0 z M 837,620 l 31,0 0,31 -31,0 z M 868,620 l 31,0 0,31 -31,0 z M 899,620 l 31,0 0,31 -31,0 z M 0,651 l 31,0 0,31 -31,0 z M 62,651 l 31,0 0,31 -31,0 z M 93,651 l 31,0 0,31 -31,0 z M 124,651 l 31,0 0,31 -31,0 z M 155,651 l 31,0 0,31 -31,0 z M 217,651 l 31,0 0,31 -31,0 z M 248,651 l 31,0 0,31 -31,0 z M 310,651 l 31,0 0,31 -31,0 z M 341,651 l 31,0 0,31 -31,0 z M 403,651 l 31,0 0,31 -31,0 z M 465,651 l 31,0 0,31 -31,0 z M 496,651 l 31,0 0,31 -31,0 z M 527,651 l 31,0 0,31 -31,0 z M 589,651 l 31,0 0,31 -31,0 z M 651,651 l 31,0 0,31 -31,0 z M 775,651 l 31,0 0,31 -31,0 z M 930,651 l 31,0 0,31 -31,0 z M 961,651 l 31,0 0,31 -31,0 z M 992,651 l 31,0 0,31 -31,0 z M 0,682 l 31,0 0,31 -31,0 z M 62,682 l 31,0 0,31 -31,0 z M 186,682 l 31,0 0,31 -31,0 z M 248,682 l 31,0 0,31 -31,0 z M 279,682 l 31,0 0,31 -31,0 z M 465,682 l 31,0 0,31 -31,0 z M 527,682 l 31,0 0,31 -31,0 z M 589,682 l 31,0 0,31 -31,0 z M 620,682 l 31,0 0,31 -31,0 z M 651,682 l 31,0 0,31 -31,0 z M 713,682 l 31,0 0,31 -31,0 z M 744,682 l 31,0 0,31 -31,0 z M 837,682 l 31,0 0,31 -31,0 z M 868,682 l 31,0 0,31 -31,0 z M 899,682 l 31,0 0,31 -31,0 z M 930,682 l 31,0 0,31 -31,0 z M 961,682 l 31,0 0,31 -31,0 z M 0,713 l 31,0 0,31 -31,0 z M 310,713 l 31,0 0,31 -31,0 z M 403,713 l 31,0 0,31 -31,0 z M 465,713 l 31,0 0,31 -31,0 z M 496,713 l 31,0 0,31 -31,0 z M 620,713 l 31,0 0,31 -31,0 z M 651,713 l 31,0 0,31 -31,0 z M 682,713 l 31,0 0,31 -31,0 z M 713,713 l 31,0 0,31 -31,0 z M 837,713 l 31,0 0,31 -31,0 z M 899,713 l 31,0 0,31 -31,0 z M 930,713 l 31,0 0,31 -31,0 z M 992,713 l 31,0 0,31 -31,0 z M 0,744 l 31,0 0,31 -31,0 z M 62,744 l 31,0 0,31 -31,0 z M 93,744 l 31,0 0,31 -31,0 z M 186,744 l 31,0 0,31 -31,0 z M 217,744 l 31,0 0,31 -31,0 z M 372,744 l 31,0 0,31 -31,0 z M 403,744 l 31,0 0,31 -31,0 z M 434,744 l 31,0 0,31 -31,0 z M 465,744 l 31,0 0,31 -31,0 z M 527,744 l 31,0 0,31 -31,0 z M 682,744 l 31,0 0,31 -31,0 z M 713,744 l 31,0 0,31 -31,0 z M 744,744 l 31,0 0,31 -31,0 z M 775,744 l 31,0 0,31 -31,0 z M 806,744 l 31,0 0,31 -31,0 z M 837,744 l 31,0 0,31 -31,0 z M 868,744 l 31,0 0,31 -31,0 z M 899,744 l 31,0 0,31 -31,0 z M 961,744 l 31,0 0,31 -31,0 z M 992,744 l 31,0 0,31 -31,0 z M 248,775 l 31,0 0,31 -31,0 z M 341,775 l 31,0 0,31 -31,0 z M 372,775 l 31,0 0,31 -31,0 z M 434,775 l 31,0 0,31 -31,0 z M 465,775 l 31,0 0,31 -31,0 z M 496,775 l 31,0 0,31 -31,0 z M 527,775 l 31,0 0,31 -31,0 z M 558,775 l 31,0 0,31 -31,0 z M 589,775 l 31,0 0,31 -31,0 z M 620,775 l 31,0 0,31 -31,0 z M 651,775 l 31,0 0,31 -31,0 z M 682,775 l 31,0 0,31 -31,0 z M 713,775 l 31,0 0,31 -31,0 z M 744,775 l 31,0 0,31 -31,0 z M 868,775 l 31,0 0,31 -31,0 z M 899,775 l 31,0 0,31 -31,0 z M 930,775 l 31,0 0,31 -31,0 z M 961,775 l 31,0 0,31 -31,0 z M 992,775 l 31,0 0,31 -31,0 z M 0,806 l 31,0 0,31 -31,0 z M 31,806 l 31,0 0,31 -31,0 z M 62,806 l 31,0 0,31 -31,0 z M 93,806 l 31,0 0,31 -31,0 z M 124,806 l 31,0 0,31 -31,0 z M 155,806 l 31,0 0,31 -31,0 z M 186,806 l 31,0 0,31 -31,0 z M 310,806 l 31,0 0,31 -31,0 z M 527,806 l 31,0 0,31 -31,0 z M 589,806 l 31,0 0,31 -31,0 z M 620,806 l 31,0 0,31 -31,0 z M 651,806 l 31,0 0,31 -31,0 z M 713,806 l 31,0 0,31 -31,0 z M 744,806 l 31,0 0,31 -31,0 z M 806,806 l 31,0 0,31 -31,0 z M 868,806 l 31,0 0,31 -31,0 z M 899,806 l 31,0 0,31 -31,0 z M 930,806 l 31,0 0,31 -31,0 z M 961,806 l 31,0 0,31 -31,0 z M 0,837 l 31,0 0,31 -31,0 z M 186,837 l 31,0 0,31 -31,0 z M 279,837 l 31,0 0,31 -31,0 z M 434,837 l 31,0 0,31 -31,0 z M 465,837 l 31,0 0,31 -31,0 z M 558,837 l 31,0 0,31 -31,0 z M 651,837 l 31,0 0,31 -31,0 z M 682,837 l 31,0 0,31 -31,0 z M 713,837 l 31,0 0,31 -31,0 z M 744,837 l 31,0 0,31 -31,0 z M 868,837 l 31,0 0,31 -31,0 z M 899,837 l 31,0 0,31 -31,0 z M 930,837 l 31,0 0,31 -31,0 z M 961,837 l 31,0 0,31 -31,0 z M 992,837 l 31,0 0,31 -31,0 z M 0,868 l 31,0 0,31 -31,0 z M 62,868 l 31,0 0,31 -31,0 z M 93,868 l 31,0 0,31 -31,0 z M 124,868 l 31,0 0,31 -31,0 z M 186,868 l 31,0 0,31 -31,0 z M 248,868 l 31,0 0,31 -31,0 z M 279,868 l 31,0 0,31 -31,0 z M 310,868 l 31,0 0,31 -31,0 z M 403,868 l 31,0 0,31 -31,0 z M 465,868 l 31,0 0,31 -31,0 z M 558,868 l 31,0 0,31 -31,0 z M 651,868 l 31,0 0,31 -31,0 z M 744,868 l 31,0 0,31 -31,0 z M 775,868 l 31,0 0,31 -31,0 z M 806,868 l 31,0 0,31 -31,0 z M 837,868 l 31,0 0,31 -31,0 z M 868,868 l 31,0 0,31 -31,0 z M 961,868 l 31,0 0,31 -31,0 z M 992,868 l 31,0 0,31 -31,0 z M 0,899 l 31,0 0,31 -31,0 z M 62,899 l 31,0 0,31 -31,0 z M 93,899 l 31,0 0,31 -31,0 z M 124,899 l 31,0 0,31 -31,0 z M 186,899 l 31,0 0,31 -31,0 z M 248,899 l 31,0 0,31 -31,0 z M 279,899 l 31,0 0,31 -31,0 z M 310,899 l 31,0 0,31 -31,0 z M 341,899 l 31,0 0,31 -31,0 z M 403,899 l 31,0 0,31 -31,0 z M 434,899 l 31,0 0,31 -31,0 z M 496,899 l 31,0 0,31 -31,0 z M 558,899 l 31,0 0,31 -31,0 z M 589,899 l 31,0 0,31 -31,0 z M 620,899 l 31,0 0,31 -31,0 z M 682,899 l 31,0 0,31 -31,0 z M 713,899 l 31,0 0,31 -31,0 z M 744,899 l 31,0 0,31 -31,0 z M 775,899 l 31,0 0,31 -31,0 z M 868,899 l 31,0 0,31 -31,0 z M 899,899 l 31,0 0,31 -31,0 z M 961,899 l 31,0 0,31 -31,0 z M 0,930 l 31,0 0,31 -31,0 z M 62,930 l 31,0 0,31 -31,0 z M 93,930 l 31,0 0,31 -31,0 z M 124,930 l 31,0 0,31 -31,0 z M 186,930 l 31,0 0,31 -31,0 z M 248,930 l 31,0 0,31 -31,0 z M 279,930 l 31,0 0,31 -31,0 z M 310,930 l 31,0 0,31 -31,0 z M 372,930 l 31,0 0,31 -31,0 z M 620,930 l 31,0 0,31 -31,0 z M 713,930 l 31,0 0,31 -31,0 z M 744,930 l 31,0 0,31 -31,0 z M 775,930 l 31,0 0,31 -31,0 z M 806,930 l 31,0 0,31 -31,0 z M 899,930 l 31,0 0,31 -31,0 z M 0,961 l 31,0 0,31 -31,0 z M 186,961 l 31,0 0,31 -31,0 z M 310,961 l 31,0 0,31 -31,0 z M 372,961 l 31,0 0,31 -31,0 z M 403,961 l 31,0 0,31 -31,0 z M 434,961 l 31,0 0,31 -31,0 z M 465,961 l 31,0 0,31 -31,0 z M 558,961 l 31,0 0,31 -31,0 z M 620,961 l 31,0 0,31 -31,0 z M 651,961 l 31,0 0,31 -31,0 z M 682,961 l 31,0 0,31 -31,0 z M 837,961 l 31,0 0,31 -31,0 z M 930,961 l 31,0 0,31 -31,0 z M 0,992 l 31,0 0,31 -31,0 z M 31,992 l 31,0 0,31 -31,0 z M 62,992 l 31,0 0,31 -31,0 z M 93,992 l 31,0 0,31 -31,0 z M 124,992 l 31,0 0,31 -31,0 z M 155,992 l 31,0 0,31 -31,0 z M 186,992 l 31,0 0,31 -31,0 z M 279,992 l 31,0 0,31 -31,0 z M 310,992 l 31,0 0,31 -31,0 z M 372,992 l 31,0 0,31 -31,0 z M 403,992 l 31,0 0,31 -31,0 z M 434,992 l 31,0 0,31 -31,0 z M 465,992 l 31,0 0,31 -31,0 z M 558,992 l 31,0 0,31 -31,0 z M 682,992 l 31,0 0,31 -31,0 z M 713,992 l 31,0 0,31 -31,0 z M 744,992 l 31,0 0,31 -31,0 z M 775,992 l 31,0 0,31 -31,0 z M 806,992 l 31,0 0,31 -31,0 z M 930,992 l 31,0 0,31 -31,0 z M 961,992 l 31,0 0,31 -31,0 z " />
	</g>
</svg>
