<svg xmlns="http://www.w3.org/2000/svg" viewBox="0 0 32 32">
  <!-- Leaf body -->
  <path d="M16 2 C22 5 28 11 28 18 C28 24 23 30 16 30 C9 30 4 24 4 18 C4 11 10 5 16 2Z" fill="#2a7a4b"/>
  <!-- Highlight -->
  <path d="M16 2 C22 5 28 11 28 18 C28 24 23 30 16 30 C9 30 4 24 4 18 C4 11 10 5 16 2Z" fill="url(#lg)"/>
  <!-- Center vein -->
  <line x1="16" y1="5" x2="16" y2="27" stroke="rgba(255,255,255,0.38)" stroke-width="1.4" stroke-linecap="round"/>
  <!-- Left veins -->
  <line x1="16" y1="13" x2="9"  y2="10" stroke="rgba(255,255,255,0.22)" stroke-width="0.9" stroke-linecap="round"/>
  <line x1="16" y1="18" x2="9"  y2="16" stroke="rgba(255,255,255,0.22)" stroke-width="0.9" stroke-linecap="round"/>
  <line x1="16" y1="23" x2="10" y2="22" stroke="rgba(255,255,255,0.18)" stroke-width="0.9" stroke-linecap="round"/>
  <!-- Right veins -->
  <line x1="16" y1="13" x2="23" y2="10" stroke="rgba(255,255,255,0.22)" stroke-width="0.9" stroke-linecap="round"/>
  <line x1="16" y1="18" x2="23" y2="16" stroke="rgba(255,255,255,0.22)" stroke-width="0.9" stroke-linecap="round"/>
  <line x1="16" y1="23" x2="22" y2="22" stroke="rgba(255,255,255,0.18)" stroke-width="0.9" stroke-linecap="round"/>
  <defs>
    <linearGradient id="lg" x1="0" y1="0" x2="1" y2="1">
      <stop offset="0%"   stop-color="#ffffff" stop-opacity="0.12"/>
      <stop offset="100%" stop-color="#000000" stop-opacity="0.08"/>
    </linearGradient>
  </defs>
</svg>
